With: Kristanna Loken, Ben Kingsley and Michelle Rodriguez

Tijdens de tijd van het Wilde Westen zijn het niet alleen de stoere cowboys die voor gevaar zorgen; er lopen namelijk ook vampieren rond. En wie had ooit gedacht dat Billy the Kid een vampier was! Het is aan Rayne om het stadje Deliverance veilig te maken en te ontdoen van deze vampieren, ware het niet dat oppervampier Billy the Kid zich niet gemakkelijk gewonnen geeft.

Rayne, the half-human/half-vampire warrior, ventures to America's 1880's Wild West to stop the vampired Billy the Kid and his posse of vampire cowboys. 

------------------ Dutch Friends ------------------

You can find my Friends at: http://www.Film-Test.nl 
                    
------ They got my dutchs subs ---- and more ------

General:

Complete name                    : BloodRayne 2, Deliverance\BloodRayne Twoo.avi
Format                           : AVI
Format/Info                      : Audio Video Interleave
File size                        : 1.29 GiB
Duration                         : 1h 35mn
Overall bit rate                 : 1 943 Kbps

Video:

Format                           : MPEG-4 Visual
Format profile                   : Simple@L3
Format settings, BVOP            : No
Format settings, QPel            : No
Format settings, GMC             : No warppoints
Format settings, Matrix          : Default (H.263)
Codec ID                         : XVID
Codec ID/Hint                    : XviD
Duration                         : 1h 35mn
Bit rate                         : 1 548 Kbps
Width                            : 652 pixels
Height                           : 352 pixels
Display aspect ratio             : 1.852
Frame rate                       : 25.000 fps
Color space                      : YUV
Chroma subsampling               : 4:2:0
Bit depth                        : 8 bits
Scan type                        : Progressive
Bits/(Pixel*Frame)               : 0.270
Stream size                      : 1.03 GiB (80%)
Writing library                  : XviD 1.1.2 (UTC 2006-11-01)

Audio:

Format                           : AC-3
Format/Info                      : Audio Coding 3
Mode extension                   : CM (complete main)
Codec ID                         : 2000
Duration                         : 1h 35mn
Bit rate mode                    : Constant
Bit rate                         : 384 Kbps
Channel(s)                       : 6 channels
Channel positions                : Front: L C R, Side: L R, LFE
Sampling rate                    : 48.0 KHz
Bit depth                        : 16 bits
Stream size                      : 261 MiB (20%)
Alignment                        : Aligned on interleaves
Interleave, duration             : 32 ms (0.80 video frame)
Interleave, preload duration     : 160 ms

